# xmcd
#
# Track frame offsets:
#	150
#	9555
#	28463
#	30269
#	47237
#	72496
#	93747
#	113346
#	134146
#	155622
#	199830
#
# Disc length: 2932 seconds
#
# Revision: 0
# Processed by: cddbd v1.5.2PL0 Copyright (c) Steve Scherf et al.
# Submitted via: EasyCDDAExtractor 10.0.3.1
#
DISCID=9b0b720b
DTITLE=Lil' Spade - Champagne Type Of Dealinz
DYEAR=2001
DGENRE=
TTITLE0=Intro
TTITLE1=Champagne
TTITLE2=Drug Deala (Feat. Udy-E)
TTITLE3=Love, Pain and Sufferin' (Feat. C. Gib, T. Bone and Pep)
TTITLE4=Release Stress
TTITLE5=I Rememba
TTITLE6=Don't Last 4 Eva (Feat. LuJuanna)
TTITLE7=Thank You (Lord Feat. C. Gib, T. Bone and China Doll)
TTITLE8=untitled
TTITLE9=untitled
TTITLE10=Bout' Business
EXTD=
EXTT0=
EXTT1=
EXTT2=
EXTT3=
EXTT4=
EXTT5=
EXTT6=
EXTT7=
EXTT8=
EXTT9=
EXTT10=
PLAYORDER=
